<svg width="58" height="59" viewBox="0 0 58 59" fill="none" xmlns="http://www.w3.org/2000/svg">
<path d="M29 58.412C45.0163 58.412 58 45.4282 58 29.412C58 13.3957 45.0163 0.411987 29 0.411987C12.9837 0.411987 0 13.3957 0 29.412C0 45.4282 12.9837 58.412 29 58.412Z" fill="#191919"/>
<path fill-rule="evenodd" clip-rule="evenodd" d="M22.9172 23.3077V39.6865H17.4659V23.3077H22.9172ZM23.2762 18.2411C23.2762 19.8138 22.0924 21.0722 20.1916 21.0722H20.1568C18.3267 21.0722 17.1436 19.8138 17.1436 18.2411C17.1436 16.6352 18.3627 15.412 20.2276 15.412C22.0924 15.412 23.2408 16.6352 23.2762 18.2411ZM42.5766 30.2954L42.5763 39.6865H37.1253V30.9239C37.1253 28.7229 36.3365 27.221 34.3631 27.221C32.857 27.221 31.96 28.2335 31.566 29.2114C31.4219 29.5619 31.3865 30.0502 31.3865 30.5397V39.687H25.9346C25.9346 39.687 26.0064 24.8451 25.9346 23.3082H31.3865V25.6281C32.11 24.5129 33.4058 22.9231 36.3001 22.9231C39.8873 22.9231 42.5766 25.2646 42.5766 30.2954Z" fill="white"/>
</svg>
