<svg width="58" height="59" viewBox="0 0 58 59" fill="none" xmlns="http://www.w3.org/2000/svg">
<g id="Group 102">
<g id="Page 1">
<g id="Social icons">
<g id="Color">
<g id="Telegram">
<g id="Group 1948754580">
<path id="Oval" d="M29 58.412C45.0163 58.412 58 45.4282 58 29.412C58 13.3957 45.0163 0.411987 29 0.411987C12.9837 0.411987 0 13.3957 0 29.412C0 45.4282 12.9837 58.412 29 58.412Z" fill="#191919"/>
<path id="Path-3" fill-rule="evenodd" clip-rule="evenodd" d="M14.8561 27.8828C22.1039 24.7781 26.9368 22.7313 29.355 21.7424C36.2594 18.9188 37.6941 18.4284 38.6292 18.4122C38.8349 18.4086 39.2947 18.4587 39.5926 18.6964C39.8441 18.897 39.9133 19.1681 39.9464 19.3583C39.9795 19.5486 40.0208 19.982 39.988 20.3206C39.6138 24.1859 37.9949 33.5658 37.1713 37.895C36.8228 39.7268 36.1365 40.341 35.4722 40.4011C34.0284 40.5317 32.9321 39.463 31.5337 38.5617C29.3455 37.1514 28.1094 36.2735 25.9854 34.8973C23.5307 33.3069 25.122 32.4328 26.5209 31.0042C26.887 30.6304 33.2483 24.9414 33.3714 24.4253C33.3868 24.3608 33.4011 24.1202 33.2557 23.9932C33.1103 23.8661 32.8958 23.9096 32.7409 23.9441C32.5215 23.9931 29.0259 26.2648 22.2541 30.7592C21.2618 31.4291 20.3631 31.7555 19.5579 31.7384C18.6702 31.7195 16.9626 31.2449 15.6932 30.8392C14.1362 30.3416 12.8988 30.0785 13.0065 29.2334C13.0627 28.7932 13.6792 28.343 14.8561 27.8828Z" fill="white"/>
</g>
</g>
</g>
</g>
</g>
</g>
</svg>
